<svg width="572" height="572" viewBox="0 0 572 572" fill="none" xmlns="http://www.w3.org/2000/svg">
<path d="M421.404 103.898C412.778 99.1962 408.82 103.12 405.72 99.1962C402.619 95.2723 414.345 85.0793 390.848 74.8862C390.848 74.8862 389.28 52.9329 357.122 52.1435C324.965 51.3542 333.602 74.1083 324.976 79.5995C316.35 85.0907 313.994 76.465 305.368 81.9562C296.742 87.4474 300.643 98.384 293.585 99.9856C286.526 101.587 277.111 92.9271 268.485 98.4183C259.86 103.91 259.86 108.611 255.901 108.611C251.943 108.611 244.13 105.477 239.428 108.611C234.726 111.746 229.235 115.67 229.235 115.67H427.684C427.684 115.67 430.03 108.611 421.404 103.898Z" stroke="#557C66" stroke-linecap="round" stroke-linejoin="round"/>
<path d="M304.041 100.672C302.916 101.306 301.746 101.857 300.54 102.319" stroke="#557C66" stroke-linecap="round" stroke-linejoin="round"/>
<path d="M346.483 64.064C344.537 64.9324 342.828 66.2536 341.496 67.9173C340.165 69.581 339.251 71.539 338.83 73.6278C337.388 80.8122 334.037 85.5941 330.216 86.0746C326.395 86.555 312.026 85.1136 309.624 90.3874C308.984 91.9289 308.535 93.5423 308.285 95.1922" stroke="#557C66" stroke-linecap="round" stroke-linejoin="round"/>
<path d="M227.725 160.274C223.206 157.815 221.147 159.863 219.499 157.815C217.852 155.767 224.018 150.413 211.686 145.059C211.686 145.059 210.862 133.551 194.011 133.139C177.16 132.727 181.667 144.647 177.148 147.576C172.63 150.505 171.428 145.929 166.852 148.812C162.276 151.694 164.393 157.449 160.686 158.272C156.98 159.096 152.049 154.566 147.53 157.449C143.011 160.332 142.954 162.791 140.952 162.791C138.95 162.791 134.786 161.144 132.315 162.791C129.844 164.439 126.973 166.486 126.973 166.486H230.996C230.996 166.486 232.232 162.745 227.725 160.274Z" stroke="#557C66" stroke-linecap="round" stroke-linejoin="round"/>
<path d="M166.189 158.593C165.594 158.917 164.979 159.204 164.347 159.451" stroke="#557C66" stroke-linecap="round" stroke-linejoin="round"/>
<path d="M188.44 139.385C187.419 139.839 186.522 140.531 185.824 141.403C185.125 142.275 184.645 143.301 184.424 144.396C183.669 148.159 181.919 150.676 179.848 150.928C177.778 151.18 170.319 150.425 169.06 153.216C168.728 154.025 168.49 154.869 168.351 155.733" stroke="#557C66" stroke-linecap="round" stroke-linejoin="round"/>
<path d="M443.999 76.0056C463.756 76.0964 483.08 81.7976 499.723 92.4451C516.366 103.093 529.642 118.248 538.005 136.148C546.369 154.048 549.475 173.955 546.963 193.552C544.462 213.071 536.489 231.481 523.969 246.658C498.025 246.324 477.824 255.825 464.105 265.418C457.224 270.229 451.97 275.065 448.435 278.7C446.668 280.518 445.329 282.035 444.431 283.1C444.01 283.601 443.685 284.001 443.458 284.286C429.723 267.767 409.542 258.171 392.775 252.699C384.304 249.934 376.689 248.217 371.191 247.191C368.442 246.678 366.221 246.338 364.686 246.126C363.919 246.02 363.323 245.945 362.918 245.897C362.716 245.873 362.561 245.857 362.457 245.845C362.436 245.843 362.418 245.84 362.401 245.839C350.058 230.562 342.276 212.11 339.958 192.602C337.626 172.983 340.916 153.105 349.443 135.283C357.97 117.461 371.385 102.427 388.125 91.9324C404.864 81.4381 424.241 75.9149 443.999 76.0056Z" stroke="#557C66"/>
<path d="M441.71 82.8942L439.879 495.077H448.986L441.71 82.8942Z" fill="#557C66"/>
<path d="M444.433 274.903C444.433 274.903 462.634 242.139 495.352 232.129C495.352 232.129 460.769 240.32 443.483 268.531L444.433 274.903Z" fill="#557C66"/>
<path d="M444.433 182.079C444.433 182.079 462.634 149.326 495.352 139.316C495.352 139.316 460.769 147.507 443.483 175.707L444.433 182.079Z" fill="#557C66"/>
<path d="M444.433 228.491C444.433 228.491 462.634 195.727 495.352 185.717C495.352 185.717 460.769 193.908 443.483 222.119L444.433 228.491Z" fill="#557C66"/>
<path d="M441.733 205.737C441.733 205.737 424.172 172.984 392.541 162.974C392.541 162.974 425.911 171.165 442.591 199.376L441.733 205.737Z" fill="#557C66"/>
<path d="M441.733 251.234C441.733 251.234 424.172 218.481 392.541 208.471C392.541 208.471 425.911 216.662 442.591 244.873L441.733 251.234Z" fill="#557C66"/>
<path d="M261.231 148.063C277.58 148.138 293.572 152.857 307.343 161.668C321.115 170.48 332.101 183.022 339.02 197.835C345.939 212.648 348.508 229.122 346.427 245.338C344.357 261.476 337.765 276.697 327.417 289.249C305.929 288.995 289.198 296.866 277.835 304.808C272.131 308.794 267.777 312.8 264.846 315.812C263.381 317.317 262.272 318.574 261.527 319.457C261.216 319.826 260.969 320.13 260.786 320.359C249.374 306.709 232.678 298.778 218.815 294.252C211.796 291.961 205.489 290.537 200.936 289.687C198.66 289.262 196.821 288.98 195.549 288.804C194.914 288.716 194.42 288.654 194.085 288.615C193.917 288.595 193.788 288.58 193.702 288.571C193.7 288.57 193.698 288.57 193.696 288.57C183.494 275.936 177.062 260.679 175.143 244.55C173.212 228.315 175.932 211.865 182.988 197.116C190.043 182.368 201.144 169.927 214.996 161.242C228.848 152.558 244.882 147.988 261.231 148.063Z" stroke="#557C66"/>
<path d="M259.322 153.696L257.823 495.077H265.351L259.322 153.696Z" fill="#557C66"/>
<path d="M261.587 312.724C261.587 312.724 276.654 285.588 303.789 277.26C303.789 277.26 275.189 284.044 260.832 307.404L261.587 312.724Z" fill="#557C66"/>
<path d="M261.587 235.847C261.587 235.847 276.654 208.711 303.789 200.383C303.789 200.383 275.189 207.167 260.832 230.539L261.587 235.847Z" fill="#557C66"/>
<path d="M261.587 274.285C261.587 274.285 276.654 247.15 303.789 238.821C303.789 238.821 275.189 245.605 260.832 268.977L261.587 274.285Z" fill="#557C66"/>
<path d="M259.356 255.444C259.356 255.444 244.805 228.308 218.63 219.98C218.63 219.98 246.257 226.764 260.077 250.136L259.356 255.444Z" fill="#557C66"/>
<path d="M259.356 293.127C259.356 293.127 244.805 265.991 218.63 257.663C218.63 257.663 246.257 264.447 260.077 287.819L259.356 293.127Z" fill="#557C66"/>
<path d="M298.733 494.689C298.573 491.108 299.042 484.312 302.897 474.097C308.937 458.081 319.519 490.113 319.519 490.113C319.519 490.113 319.519 486.303 330.856 474.097C342.193 461.89 352.009 483.249 352.009 483.249C352.009 483.249 346.724 432.157 359.571 435.967C372.418 439.776 370.896 483.249 370.896 483.249C370.896 483.249 379.968 451.216 392.06 451.216C404.152 451.216 407.173 474.097 407.173 474.097C407.173 474.097 410.193 433.679 422.285 432.912C434.377 432.146 447.968 466.477 447.968 466.477C447.968 466.477 444.192 420.717 456.284 418.429C468.377 416.141 472.907 435.2 472.907 435.2C472.907 435.2 483.477 371.903 503.886 379.533C524.295 387.164 506.906 457.325 506.906 457.325C506.906 457.325 527.304 408.511 543.926 419.951C559.039 430.35 539.808 484.862 536.193 494.689H298.733Z" fill="#557C66"/>
<path d="M542.633 494.585C542.633 494.585 551.488 467.232 546.946 462.656C542.405 458.08 522.808 477.917 522.808 477.917C522.808 477.917 537.165 429.103 514.491 423.005C491.817 416.908 488.053 470.287 488.053 470.287C488.053 470.287 471.431 445.885 467.644 455.037C465.363 460.615 464.085 466.552 463.869 472.575C463.869 472.575 455.564 406.223 436.665 409.277C417.766 412.332 435.155 477.917 435.155 477.917C435.155 477.917 424.584 455.037 412.492 457.325C400.4 459.613 395.824 474.096 395.824 474.096C395.824 474.096 390.539 461.135 386.752 461.135C382.965 461.135 378.447 484.015 378.447 484.015C378.447 484.015 373.871 448.928 365.599 450.461C357.328 451.994 339.905 481.727 339.905 481.727C339.905 481.727 342.937 464.944 333.865 464.189C324.793 463.434 319.508 490.112 319.508 490.112C319.508 490.112 307.416 464.944 299.865 469.52C292.315 474.096 295.918 495.352 295.918 495.352" stroke="#557C66" stroke-linecap="round" stroke-linejoin="round"/>
<path d="M501.839 494.208L508.417 461.901" stroke="#557C66" stroke-linecap="round" stroke-linejoin="round"/>
<path d="M454.774 494.688L450.988 473.341" stroke="#557C66" stroke-linecap="round" stroke-linejoin="round"/>
<path d="M359.216 494.585L364.101 477.151" stroke="#557C66" stroke-linecap="round" stroke-linejoin="round"/>
<path d="M417.743 495.455L409.438 480.205" stroke="#557C66" stroke-linecap="round" stroke-linejoin="round"/>
<path d="M503.131 481.727L497.079 469.521" stroke="#557C66" stroke-linecap="round" stroke-linejoin="round"/>
<path d="M454.774 487.824L460.06 477.151" stroke="#557C66" stroke-linecap="round" stroke-linejoin="round"/>
<path d="M413.968 487.069L417.743 480.205" stroke="#557C66" stroke-linecap="round" stroke-linejoin="round"/>
<path d="M360.738 488.11L358.061 478.672" stroke="#557C66" stroke-linecap="round" stroke-linejoin="round"/>
<path d="M264.264 494.86C264.39 492.08 264.035 486.852 261.21 478.844C256.782 466.409 249.014 491.279 249.014 491.279C249.014 491.279 249.014 488.316 240.709 478.844C232.404 469.372 225.196 485.948 225.196 485.948C225.196 485.948 229.075 446.286 219.648 449.249C210.221 452.212 211.343 485.948 211.343 485.948C211.343 485.948 204.776 461.124 195.853 461.124C186.93 461.124 184.767 478.878 184.767 478.878C184.767 478.878 182.56 447.499 173.694 446.915C164.828 446.332 154.852 472.953 154.852 472.953C154.852 472.953 157.62 437.489 148.754 435.658C139.888 433.828 136.559 448.688 136.559 448.688C136.559 448.688 128.803 399.553 113.839 405.468C98.8759 411.382 111.62 465.86 111.62 465.86C111.62 465.86 96.6565 427.97 84.473 436.848C73.3876 444.924 87.4931 487.184 90.193 494.86H264.264Z" fill="#557C66"/>
<path d="M85.4225 494.78C85.4225 494.78 78.936 473.547 82.2536 470.001C85.5712 466.455 99.9856 481.841 99.9856 481.841C99.9856 481.841 89.4608 443.952 106.083 439.216C122.705 434.48 125.531 475.915 125.531 475.915C125.531 475.915 137.726 456.971 140.495 464.075C142.171 468.427 143.107 473.028 143.263 477.689C143.263 477.689 149.361 426.209 163.214 428.554C177.068 430.899 164.358 481.841 164.358 481.841C164.358 481.841 172.115 464.075 180.981 465.825C189.847 467.576 193.176 478.844 193.176 478.844C193.176 478.844 197.054 468.777 199.822 468.777C202.591 468.777 205.92 486.543 205.92 486.543C205.92 486.543 209.249 459.305 215.347 460.494C221.444 461.684 234.188 484.759 234.188 484.759C234.188 484.759 231.969 471.74 238.616 471.145C245.262 470.55 249.14 491.279 249.14 491.279C249.14 491.279 258.006 471.74 263.555 475.263C269.103 478.787 266.369 495.352 266.369 495.352" stroke="#557C66" stroke-linecap="round" stroke-linejoin="round"/>
<path d="M115.338 494.483L110.51 469.406" stroke="#557C66" stroke-linecap="round" stroke-linejoin="round"/>
<path d="M149.864 494.86L152.632 478.284" stroke="#557C66" stroke-linecap="round" stroke-linejoin="round"/>
<path d="M219.945 494.78L216.353 481.247" stroke="#557C66" stroke-linecap="round" stroke-linejoin="round"/>
<path d="M177.011 495.455L183.109 483.615" stroke="#557C66" stroke-linecap="round" stroke-linejoin="round"/>
<path d="M114.4 484.793L118.827 475.321" stroke="#557C66" stroke-linecap="round" stroke-linejoin="round"/>
<path d="M149.864 489.529L145.986 481.247" stroke="#557C66" stroke-linecap="round" stroke-linejoin="round"/>
<path d="M179.78 488.946L177.011 483.615" stroke="#557C66" stroke-linecap="round" stroke-linejoin="round"/>
<path d="M218.824 489.746L220.792 482.425" stroke="#557C66" stroke-linecap="round" stroke-linejoin="round"/>
<path d="M19.448 495.077H565.136" stroke="#557C66" stroke-linecap="round" stroke-linejoin="round"/>
<path d="M436.184 399.919L430.602 408.305L384.727 428.245C384.727 428.245 378.344 429.446 378.344 431.437C378.344 433.427 377.142 439.021 378.344 439.822C379.545 440.623 387.496 437.82 387.496 437.82C387.496 437.82 385.105 440.612 387.496 441.412C389.887 442.213 392.278 438.621 392.278 438.621C394.62 437.145 396.884 435.549 399.062 433.839C400.185 432.362 401.123 430.752 401.853 429.046L444.181 418.281L452.955 405.113C452.955 405.113 434.995 403.111 436.184 399.919Z" fill="#E6E2CD" stroke="#557C66" stroke-linecap="round" stroke-linejoin="round"/>
<path d="M439.376 381.112L434.182 398.158L447.762 406.246L453.241 392.953L439.376 381.112Z" fill="#E6E2CD" stroke="#557C66" stroke-linecap="round" stroke-linejoin="round"/>
<path d="M434.72 392.667L451.194 402.494L448.299 407.687L432.707 399.599C432.814 397.161 433.505 394.784 434.72 392.667Z" fill="#E6E2CD" stroke="#557C66" stroke-linecap="round" stroke-linejoin="round"/>
<path d="M402.116 482.768C402.116 482.768 390.562 488.545 387.381 491.142C384.201 493.739 383.629 493.43 384.487 495.478H421.473L420.603 482.185L402.116 482.768Z" fill="#E6E2CD" stroke="#557C66" stroke-linecap="round" stroke-linejoin="round"/>
<path d="M421.335 493.487H384.487C383.984 494.025 384.041 494.46 384.487 495.512H421.472L421.335 493.487Z" fill="#E6E2CD" stroke="#557C66" stroke-linecap="round" stroke-linejoin="round"/>
<path d="M451.8 414.048C451.8 414.048 437.649 408.271 426.094 407.115C414.54 405.96 390.562 406.532 389.406 411.691C388.251 416.851 406.452 473.467 406.452 473.467C406.452 473.467 403.271 475.492 403.02 476.899C402.768 478.306 402.162 482.619 402.162 482.619L420.649 485.502C420.649 485.502 421.221 479.725 421.221 474.245C421.221 468.765 414.872 434.949 414.872 434.949L452.132 446.801L438.266 476.259C438.266 476.259 433.942 484.93 438.85 489.266C443.758 493.602 451.846 492.698 451.846 492.698L517.717 493.567L516.573 482.871C516.573 482.871 507.044 481.429 505.305 481.429C503.566 481.429 470.344 473.055 470.344 473.055C470.344 473.055 496.931 445.313 499.814 440.692C501.529 438.133 502.697 435.247 503.244 432.215C503.792 429.183 503.706 426.071 502.994 423.074C501.255 416.141 500.1 414.689 500.1 414.689C500.1 414.689 479.828 424.424 469.429 422.136C463.059 420.679 457.058 417.926 451.8 414.048Z" fill="#557C66" stroke="#E6E2CD" stroke-linecap="round" stroke-linejoin="round"/>
<path d="M404.713 325.354C404.713 325.354 406.738 332 406.738 332.87C406.738 333.739 405.285 338.063 406.452 339.505C407.619 340.946 411.028 341.244 411.028 341.244C411.028 341.244 416.222 347.307 418.532 349.618C420.843 351.929 423.44 352.798 426.335 351.357C429.229 349.915 431.826 346.152 431.826 346.152L437.317 351.643L450.027 336.908L445.451 331.131C445.451 331.131 446.595 324.484 442.27 315.824C437.946 307.164 422.914 304.842 413.087 306.581C403.26 308.319 400.961 314.085 400.961 315.241C400.961 316.396 404.713 325.354 404.713 325.354Z" fill="#E6E2CD" stroke="#557C66" stroke-linecap="round" stroke-linejoin="round"/>
<path d="M409.918 299.065C409.918 299.065 403.843 294.488 399.805 296.468C395.767 298.447 397.517 300.22 396.911 303.686C396.305 307.153 386.226 307.439 386.226 313.216C386.226 318.993 393.444 321.018 394.886 321.304C396.327 321.59 395.183 327.951 399.462 327.951C403.74 327.951 404.667 325.354 404.667 325.354C404.667 325.354 401.487 316.11 404.953 314.669C408.419 313.227 416.222 310.333 415.066 315.813C413.911 321.292 417.96 323.031 420.271 322.459C422.582 321.887 425.465 322.162 425.991 323.317C426.518 324.473 429.423 326.498 429.423 323.615C429.423 320.732 430.865 318.124 433.462 318.124C436.058 318.124 438.038 322.459 437.797 325.926C437.602 328.013 436.808 330 435.509 331.646L445.336 331.062C445.336 331.062 447.933 318.066 445.622 308.823C443.311 299.579 432.432 294.443 425.797 293.573C419.162 292.704 410.776 296.468 409.918 299.065Z" fill="#557C66" stroke="#557C66" stroke-linecap="round" stroke-linejoin="round"/>
<path d="M412.401 330.513C413.121 331.657 413.293 332.801 412.801 333.087C412.309 333.373 411.302 332.801 410.593 331.703C409.884 330.605 409.689 329.415 410.193 329.129C410.696 328.843 411.68 329.472 412.401 330.513Z" fill="#557C66"/>
<path d="M416.153 343.486C417.533 343.211 418.784 342.488 419.711 341.429C420.638 340.369 421.189 339.033 421.278 337.629" stroke="#557C66" stroke-linecap="round" stroke-linejoin="round"/>
<path d="M407.355 328.099C407.355 328.099 407.836 325.411 411.016 326.635" stroke="#557C66" stroke-linecap="round" stroke-linejoin="round"/>
<path d="M437.935 356.551C437.935 356.551 435.647 375.621 438.221 381.398C440.795 387.175 450.072 410.284 450.072 410.284C450.072 410.284 448.048 424.424 453.825 428.199C459.602 431.974 481.555 432.535 489.941 427.33C498.326 422.125 501.781 418.086 501.781 414.334C501.781 410.582 496.29 394.108 487.63 377.646C481.288 365.59 472.535 354.967 461.913 346.438C455.85 341.53 453.539 339.219 452.383 339.219C451.228 339.219 437.363 351.071 437.935 356.551Z" fill="#E6E2CD" stroke="#557C66" stroke-linecap="round" stroke-linejoin="round"/>
<path d="M450.072 335.467L434.468 353.084L437.649 362.625L455.266 339.802L450.072 335.467Z" fill="#E6E2CD" stroke="#557C66" stroke-linecap="round" stroke-linejoin="round"/>
<path d="M450.358 399.885C450.358 399.885 418.578 418.086 414.54 419.539C410.501 420.992 397.494 420.981 393.73 420.683C393.269 420.601 392.795 420.621 392.342 420.743C391.889 420.864 391.469 421.084 391.11 421.387C390.752 421.689 390.465 422.067 390.269 422.493C390.074 422.919 389.974 423.383 389.978 423.852L389.406 434.834C389.406 434.834 392.575 435.704 393.982 434.834C395.389 433.965 396.865 430.785 396.865 430.785C396.865 430.785 402.07 431.368 403.798 430.213C404.931 429.441 405.996 428.572 406.978 427.616C412.316 427.173 417.622 426.408 422.868 425.328C428.645 423.875 455.22 415.215 459.27 414.345C463.32 413.476 464.761 411.165 465.047 409.769C465.333 408.374 450.358 399.885 450.358 399.885Z" fill="#E6E2CD" stroke="#557C66" stroke-linecap="round" stroke-linejoin="round"/>
<path d="M414.128 419.654C409.712 420.969 397.38 420.969 393.73 420.695C393.269 420.612 392.795 420.633 392.342 420.754C391.889 420.876 391.469 421.096 391.11 421.398C390.752 421.701 390.465 422.078 390.269 422.505C390.074 422.931 389.974 423.395 389.978 423.863L389.406 434.846C389.406 434.846 392.575 435.715 393.982 434.846C395.389 433.976 396.865 430.796 396.865 430.796C396.865 430.796 402.07 431.38 403.798 430.224C404.931 429.453 405.996 428.584 406.978 427.627C406.978 427.627 411.829 427.204 416.736 426.483L414.128 419.654Z" fill="#557C66" stroke="#557C66" stroke-linecap="round" stroke-linejoin="round"/>
<path d="M452.669 356.848C452.669 356.848 447.762 362.328 448.334 366.377C448.906 370.427 450.359 399.885 450.359 399.885L466.821 406.532L471.397 383.137C471.397 383.137 475.16 377.062 474.577 371.285" fill="#E6E2CD"/>
<path d="M452.669 356.848C452.669 356.848 447.762 362.328 448.334 366.377C448.906 370.427 450.359 399.885 450.359 399.885L466.821 406.532L471.397 383.137C471.397 383.137 475.16 377.062 474.577 371.285" stroke="#557C66" stroke-linecap="round" stroke-linejoin="round"/>
<path d="M448.917 401.338L465.665 411.44C465.665 411.44 467.953 411.44 468.273 407.687C468.594 403.935 470.287 403.352 468.845 401.338C467.404 399.325 452.086 392.953 450.644 392.953C449.203 392.953 447.762 396.419 448.917 401.338Z" fill="#E6E2CD" stroke="#557C66" stroke-linecap="round" stroke-linejoin="round"/>
<path d="M516.516 483.088C516.516 483.088 525.176 475.584 526.629 475.87C528.082 476.156 539.625 487.138 539.625 487.138C539.625 487.138 550.31 492.915 550.31 493.785C550.31 494.654 548.582 494.929 548.582 494.929L517.694 493.785L516.516 483.088Z" fill="#E6E2CD" stroke="#557C66" stroke-linecap="round" stroke-linejoin="round"/>
<path d="M550.264 493.785C550.264 492.915 539.579 487.138 539.579 487.138C539.579 487.138 528.025 476.156 526.583 475.87C526.068 475.767 524.627 476.659 523.002 477.849L536.982 487.71L547.164 494.883L548.536 494.94C548.536 494.94 550.264 494.643 550.264 493.785Z" fill="#E6E2CD" stroke="#557C66" stroke-linecap="round" stroke-linejoin="round"/>
<path d="M452.086 446.984L449.203 434.846" stroke="#999999" stroke-linecap="round" stroke-linejoin="round"/>
<path d="M351.574 398.89C348.142 396.945 343.097 394.314 343.097 394.314C343.097 394.314 336.302 377.154 330.971 369.146C325.64 361.138 322.482 360.166 316.659 359.685C310.836 359.205 293.39 363.803 292.635 365.016C292.635 365.016 276.39 372.532 272.272 377.875C268.154 383.217 269.595 424.664 269.595 424.664C269.595 424.664 252.16 436.47 247.562 449.592C244.633 457.909 248.042 471.648 263.806 475.778C269.066 477.186 274.586 477.307 279.902 476.133C283.998 479.588 288.533 482.484 293.39 484.747C309.635 492.503 320.297 493.956 330.238 494.448C340.18 494.94 350.361 491.783 352.306 489.872C354.251 487.962 358.129 480.411 348.188 469.509C339.619 460.094 313.765 449.615 306.786 446.904C307.481 442.832 307.863 438.713 307.93 434.583C307.93 434.583 322.963 417.423 323.946 413.487C324.93 409.552 327.378 393.605 327.378 393.605C327.378 393.605 335.627 408.648 338.052 410.822C340.477 412.995 354.537 411.314 355.99 411.314C357.443 411.314 358.175 405.01 358.175 405.01C356.332 402.616 354.1 400.547 351.574 398.89Z" fill="#E6E2CD" stroke="#557C66" stroke-linecap="round" stroke-linejoin="round"/>
<path d="M348.188 469.452C339.619 460.037 313.765 449.558 306.786 446.846C307.004 445.577 307.187 444.341 307.324 443.174C300.801 444.615 294.027 444.478 287.567 442.774C269.137 437.923 265.259 427.982 265.259 427.982H265.122C259.619 432.443 250.662 440.715 247.562 449.558C244.633 457.875 248.042 471.614 263.806 475.744C269.066 477.151 274.586 477.273 279.902 476.098C283.998 479.553 288.533 482.45 293.39 484.713C309.635 492.469 320.297 493.922 330.238 494.414C340.18 494.906 350.361 491.748 352.306 489.838C354.251 487.927 358.129 480.354 348.188 469.452Z" fill="#557C66" stroke="#E6E2CD" stroke-linecap="round" stroke-linejoin="round"/>
<path d="M257.251 451.262C257.251 451.262 265.98 440.589 277.386 444.959C317.231 460.231 327.333 477.208 330.01 483.992C332.687 490.776 331.703 494.425 329.529 495.878C327.356 497.331 304.556 492 293.642 488.122C282.728 484.244 268.176 486.177 255.81 475.755C243.443 465.333 245.388 455.163 249.266 446.412" fill="#557C66"/>
<path d="M257.251 451.262C257.251 451.262 265.98 440.589 277.386 444.959C317.231 460.231 327.333 477.208 330.01 483.992C332.687 490.776 331.703 494.425 329.529 495.878C327.356 497.331 304.556 492 293.642 488.122C282.728 484.244 268.176 486.177 255.81 475.755C243.443 465.333 245.388 455.163 249.266 446.412" stroke="#E6E2CD" stroke-linecap="round" stroke-linejoin="round"/>
<path d="M358.129 404.976C356.295 402.606 354.08 400.557 351.574 398.913C348.142 396.968 343.097 394.337 343.097 394.337C343.097 394.337 341.141 389.395 338.521 383.572C335.581 386.02 330.765 390.722 328.911 396.43C331.428 400.892 336.256 409.243 338.063 410.822C340.477 413.007 354.548 411.314 356.001 411.314C357.454 411.314 358.129 404.976 358.129 404.976Z" fill="#E6E2CD" stroke="#557C66" stroke-linecap="round" stroke-linejoin="round"/>
<path d="M327.333 393.547L327.092 380.46" stroke="#557C66" stroke-linecap="round" stroke-linejoin="round"/>
<path d="M366 426.472C363.276 427.448 360.661 428.706 358.198 430.224C355.91 431.952 355.601 433.404 355.601 436.001C355.601 438.598 350.396 442.065 353.004 442.065C355.612 442.065 357.58 441.195 359.937 436.871C362.293 432.546 365.131 431.265 365.131 431.265C365.31 433.357 365.693 435.426 366.275 437.443C367.082 439.165 367.189 441.134 366.572 442.934C365.988 445.222 368.86 444.673 369.741 438.358C370.207 434.328 369.611 430.246 368.013 426.518L366 426.472Z" fill="#E6E2CD" stroke="#557C66" stroke-linecap="round" stroke-linejoin="round"/>
<path d="M365.428 419.516C365.428 419.516 366.286 424.39 366 425.499C365.714 426.609 361.664 429.709 360.223 432.363C359.647 433.443 359.299 434.63 359.2 435.85C359.102 437.07 359.255 438.298 359.651 439.456C360.223 441.229 361.939 446.984 362.82 445.439C363.7 443.895 363.964 442.11 363.964 438.793C363.964 435.475 363.392 432.581 365.108 431.254L366.846 429.927C367.685 431.862 368.362 433.863 368.871 435.91C370.015 440.12 368.002 443.666 368.574 444.33C369.146 444.993 371.468 444.547 371.754 442.774C372.04 441.001 373.196 439.01 373.196 435.464C373.178 433.301 372.53 431.19 371.331 429.389C370.791 427.896 370.355 426.367 370.027 424.813C369.512 422.136 367.739 417.08 365.428 419.516Z" fill="#E6E2CD" stroke="#557C66" stroke-linecap="round" stroke-linejoin="round"/>
<path d="M374.374 411.737C375.629 413.858 376.775 416.042 377.806 418.281C378.527 420.226 379.019 422.411 377.806 422.857C376.593 423.303 375.621 419.951 374.889 418.498C374.157 417.045 371.708 410.765 374.374 411.737Z" fill="#557C66" stroke="#557C66" stroke-linecap="round" stroke-linejoin="round"/>
<path d="M374.374 411.737C372.921 408.591 364.673 403.729 362.488 402.528C360.966 401.67 356.104 401.544 353.336 401.533C352.672 401.429 351.997 401.429 351.334 401.533C351.334 401.533 347.456 404.438 347.696 407.596C347.786 408.496 348.171 409.341 348.792 409.999C349.413 410.658 350.234 411.092 351.128 411.234H352.272C352.086 412.411 352.291 413.616 352.855 414.666C354.789 417.652 355.967 421.064 356.287 424.607C356.287 427.764 359.925 426.552 360.406 424.127C360.886 421.701 359.685 417.343 359.685 416.37C359.685 415.398 361.618 412.732 361.618 412.732C361.618 412.732 366.961 418.304 367.682 419.516C368.402 420.729 368.654 427.032 370.599 427.524C372.544 428.016 372.532 424.092 372.532 424.092C372.934 424.125 373.338 424.075 373.72 423.944C374.101 423.813 374.451 423.605 374.748 423.331C375.045 423.058 375.281 422.727 375.443 422.358C375.606 421.988 375.689 421.59 375.69 421.186C376.091 417.976 375.637 414.716 374.374 411.737Z" fill="#557C66" stroke="#557C66" stroke-linecap="round" stroke-linejoin="round"/>
<path d="M369.043 412.469C369.043 412.469 372.669 414.643 372.669 416.828C372.669 419.013 372.429 424.104 372.429 424.104" stroke="#557C66" stroke-linecap="round" stroke-linejoin="round"/>
<path d="M330.73 489.632C330.73 493.064 332.664 493.51 325.148 498.12C317.632 502.731 306.237 499.573 295.083 497.148C283.929 494.723 270.59 492.778 265.5 492.778C260.409 492.778 248.248 494.666 243.672 494.666C239.096 494.666 231.557 494.185 232.529 491.76C233.502 489.335 245.857 485.445 246.829 484.484C247.802 483.523 247.562 481.567 249.987 477.929C250.535 476.931 251.423 476.164 252.49 475.765C253.556 475.366 254.73 475.363 255.798 475.755C260.082 479.679 265.403 482.288 271.128 483.271C280.28 484.724 297.062 485.445 303.618 485.445C310.173 485.445 318.41 488.362 319.13 488.362" fill="#557C66"/>
<path d="M330.73 489.632C330.73 493.064 332.664 493.51 325.148 498.12C317.632 502.731 306.237 499.573 295.083 497.148C283.929 494.723 270.59 492.778 265.5 492.778C260.409 492.778 248.248 494.666 243.672 494.666C239.096 494.666 231.557 494.185 232.529 491.76C233.502 489.335 245.857 485.445 246.829 484.484C247.802 483.523 247.562 481.567 249.987 477.929C250.535 476.931 251.423 476.164 252.49 475.765C253.556 475.366 254.73 475.363 255.798 475.755C260.082 479.679 265.403 482.288 271.128 483.271C280.28 484.724 297.062 485.445 303.618 485.445C310.173 485.445 318.41 488.362 319.13 488.362" stroke="#E6E2CD" stroke-linecap="round" stroke-linejoin="round"/>
<path d="M271.128 483.271C265.419 482.28 260.115 479.671 255.844 475.755C254.776 475.363 253.602 475.366 252.535 475.765C251.469 476.164 250.581 476.931 250.033 477.929C247.607 481.567 247.848 483.512 246.875 484.484C245.903 485.456 233.536 489.335 232.575 491.76C231.614 494.185 239.096 494.666 243.672 494.666C248.248 494.666 260.409 492.721 265.499 492.721C268.144 492.794 270.783 493.012 273.405 493.373C273.405 493.155 273.313 492.938 273.256 492.721C272.547 489.701 274.583 485.754 275.715 483.878C274.034 483.695 272.466 483.489 271.128 483.271Z" fill="#E6E2CD" stroke="#557C66" stroke-linecap="round" stroke-linejoin="round"/>
<path d="M255.798 475.755C254.73 475.363 253.556 475.366 252.49 475.765C251.423 476.164 250.535 476.931 249.987 477.929C247.562 481.567 247.802 483.512 246.829 484.484C245.857 485.456 233.49 489.335 232.529 491.76C232.175 492.618 232.907 493.224 234.188 493.659C237.037 490.604 246.086 488.065 248.614 486.223C251.142 484.381 249.255 483.752 251.92 480.114C252.584 479.264 253.41 478.556 254.351 478.029C255.292 477.503 256.329 477.169 257.4 477.048C256.347 476.293 255.798 475.755 255.798 475.755Z" stroke="#557C66" stroke-linecap="round" stroke-linejoin="round"/>
<path d="M278.106 372.944C278.106 372.944 268.165 376.822 266.232 384.819C264.298 392.815 267.925 442.534 267.925 443.746C267.925 444.959 274.468 446.171 284.661 447.178C294.855 448.185 313.753 448.391 313.753 448.391C313.753 448.391 322.002 452.017 323.695 452.017C325.388 452.017 329.026 449.844 329.026 449.844C329.026 449.844 328.545 452.017 330.479 451.537C332.412 451.056 338.967 445.714 338.967 444.753C338.967 443.792 334.609 439.17 331.943 438.69C329.277 438.209 317.391 442.808 316.179 442.808C314.966 442.808 293.871 438.232 289.993 436.505C286.909 435.254 283.749 434.199 280.532 433.347L282.236 391.408" fill="#E6E2CD"/>
<path d="M278.106 372.944C278.106 372.944 268.165 376.822 266.232 384.819C264.298 392.815 267.925 442.534 267.925 443.746C267.925 444.959 274.468 446.171 284.661 447.178C294.855 448.185 313.753 448.391 313.753 448.391C313.753 448.391 322.002 452.017 323.695 452.017C325.388 452.017 329.026 449.844 329.026 449.844C329.026 449.844 328.545 452.017 330.479 451.537C332.412 451.056 338.967 445.714 338.967 444.753C338.967 443.792 334.609 439.17 331.943 438.69C329.277 438.209 317.391 442.808 316.179 442.808C314.966 442.808 293.871 438.232 289.993 436.505C286.909 435.254 283.749 434.199 280.532 433.347L282.236 391.408" stroke="#557C66" stroke-linecap="round" stroke-linejoin="round"/>
<path d="M331.943 438.655C329.266 438.163 317.391 442.774 316.179 442.774C314.966 442.774 293.871 438.198 289.993 436.47C286.909 435.219 283.749 434.165 280.532 433.313L281.458 410.33L266.026 409.735C266.678 425.625 267.925 443.037 267.925 443.746C267.925 444.959 274.468 446.171 284.662 447.178C294.855 448.185 313.753 448.391 313.753 448.391C313.753 448.391 322.002 452.017 323.695 452.017C325.388 452.017 329.026 449.844 329.026 449.844C329.026 449.844 328.545 452.017 330.479 451.537C332.412 451.056 338.967 445.714 338.967 444.753C338.967 443.792 334.609 439.136 331.943 438.655Z" fill="#E6E2CD" stroke="#557C66" stroke-linecap="round" stroke-linejoin="round"/>
<path d="M338.967 444.719C338.967 443.746 334.609 439.136 331.943 438.655C329.278 438.175 317.391 442.774 316.179 442.774C315.801 442.774 313.49 442.328 310.367 441.63C309.223 442.774 308.136 444.741 308.502 448.219L313.753 448.322C313.753 448.322 322.002 451.949 323.695 451.949C325.388 451.949 329.026 449.775 329.026 449.775C329.026 449.775 328.545 451.949 330.479 451.468C332.412 450.988 338.967 445.68 338.967 444.719Z" fill="#557C66" stroke="#557C66" stroke-linecap="round" stroke-linejoin="round"/>
<path d="M286.114 325.411C286.114 325.411 276.894 318.146 273.256 320.572C269.618 322.997 254.346 342.388 252.893 347.719C251.44 353.05 259.436 354.274 256.531 358.633C253.625 362.991 248.042 364.696 250.227 370.073C252.412 375.449 261.141 375.896 263.074 377.108C265.008 378.321 268.165 382.931 275.201 380.986C282.236 379.042 280.772 370.073 286.114 368.86C291.457 367.647 290.965 360.383 288.54 354.56C286.114 348.737 284.662 340.74 287.567 337.103C290.473 333.465 286.114 325.411 286.114 325.411Z" fill="#557C66" stroke="#557C66" stroke-linecap="round" stroke-linejoin="round"/>
<path d="M291.491 320.423C291.491 320.423 284.055 320.846 280.543 330.136C277.031 339.425 280.543 353.267 281.573 355.544C282.602 357.82 287.979 360.12 291.285 358.221C294.591 356.322 299.133 349.137 302.428 347.273C305.722 345.408 312.346 337.572 312.346 337.572L317.094 343.555C317.094 343.555 320.194 343.143 321.43 337.16C322.665 331.177 318.135 324.77 310.699 321.052C303.263 317.334 295.209 317.54 291.491 320.423Z" fill="#557C66" stroke="#557C66" stroke-linecap="round" stroke-linejoin="round"/>
<path d="M290.473 362.271C290.473 362.271 290.713 369.546 292.418 372.704C294.122 375.861 298.481 389.864 304.052 390.401C309.624 390.939 309.383 370.759 309.383 370.759C309.383 370.759 302.84 370.999 298.961 366.881C295.083 362.762 290.965 360.36 290.473 362.271Z" stroke="#557C66" stroke-linecap="round" stroke-linejoin="round"/>
<path d="M313.17 331.577C313.17 331.577 304.498 341.701 297.68 346.037C290.862 350.373 287.773 350.991 287.773 350.991C287.773 350.991 290.45 350.579 288.597 352.444C286.744 354.308 286.309 354.732 285.291 353.061C284.273 351.391 280.131 349.755 279.296 353.885C278.941 355.609 279.206 357.403 280.043 358.951C280.879 360.499 282.235 361.703 283.872 362.351C285.634 363.093 287.591 363.237 289.443 362.762C289.443 362.762 290.061 369.787 298.321 373.916C306.581 378.046 314.234 372.269 316.499 367.933C318.764 363.598 317.952 343.978 317.529 340.672C317.105 337.366 313.17 331.577 313.17 331.577Z" fill="#E6E2CD" stroke="#557C66" stroke-linecap="round" stroke-linejoin="round"/>
<path d="M311.088 351.116C311.088 351.116 310.596 354.995 311.328 355.235C312.06 355.475 314.76 356.447 313.753 357.912C312.747 359.376 311.328 360.337 309.635 359.605" stroke="#557C66" stroke-linecap="round" stroke-linejoin="round"/>
<path d="M300.174 363.003C300.174 363.003 302.119 366.149 309.635 364.455" stroke="#557C66" stroke-linecap="round" stroke-linejoin="round"/>
<path d="M304.544 352.695C304.544 353.839 303.995 354.754 303.332 354.754C302.668 354.754 302.119 353.828 302.119 352.695C302.119 351.563 302.657 350.636 303.332 350.636C304.007 350.636 304.544 351.551 304.544 352.695Z" fill="#557C66"/>
<path d="M314.966 351.483C314.966 352.627 314.428 353.542 313.753 353.542C313.078 353.542 312.541 352.615 312.541 351.483C312.541 350.35 313.078 349.423 313.753 349.423C314.428 349.423 314.966 350.339 314.966 351.483Z" fill="#557C66"/>
<path d="M299.728 348.92C300.39 348.107 301.251 347.479 302.227 347.099C303.203 346.718 304.262 346.596 305.299 346.746" stroke="#557C66" stroke-linecap="round" stroke-linejoin="round"/>
<path d="M311.328 346.506C311.328 346.506 312.781 343.36 315.904 345.545" stroke="#557C66" stroke-linecap="round" stroke-linejoin="round"/>
<path d="M392.003 431.666C392.003 431.666 368.597 439.182 362.259 441.493C355.921 443.803 335.1 444.089 333.659 446.4C332.218 448.711 321.853 461.776 319.828 469.28C317.803 476.785 320.492 497.114 322.425 498.384C330.193 503.52 350.625 501.941 359.273 501.61C375.095 501.026 390.413 506.735 399.313 490.627C402.196 485.422 398.032 467.198 397.46 461.135C396.888 455.072 394.852 444.959 394.566 443.506C394.28 442.053 396.339 432.821 392.003 431.666Z" fill="#E6E2CD" stroke="#557C66" stroke-linecap="round" stroke-linejoin="round"/>
<path d="M362.728 461.032C375.106 456.662 385.665 443.872 388.949 441.721C392.232 439.571 394.028 434.857 394.028 434.857C388.843 438.351 383.214 441.137 377.291 443.14" stroke="#557C66" stroke-linecap="round" stroke-linejoin="round"/>
<path d="M393.685 436.939C391.344 444.166 387.207 450.681 381.661 455.873" stroke="#557C66" stroke-linecap="round" stroke-linejoin="round"/>
<path d="M338.327 447.132C338.327 447.132 341.964 448.951 354.343 448.951" stroke="#557C66" stroke-linecap="round" stroke-linejoin="round"/>
<path d="M336.862 447.498C336.862 447.498 339.779 460.243 356.173 465.345" stroke="#557C66" stroke-linecap="round" stroke-linejoin="round"/>
<path d="M333.956 451.88C336.442 456.264 339.784 460.104 343.783 463.171" stroke="#557C66" stroke-linecap="round" stroke-linejoin="round"/>
<path d="M104.035 390.985C104.035 390.985 110.499 409.415 110.499 416.851C110.499 424.287 115.67 465.025 116.31 469.555C116.74 472.368 117.616 475.095 118.907 477.631C123.323 481.713 128.339 485.092 133.779 487.653C143.149 492.229 142.828 490.89 141.215 492.824C139.602 494.757 124.719 495.112 117.935 494.448C111.151 493.785 104.356 496.061 104.035 493.155C103.715 490.25 103.704 478.604 103.704 473.433C103.704 468.262 90.1243 442.728 88.5113 434.628C86.8983 426.529 87.5389 413.945 87.5389 413.945L79.4622 394.497L104.035 390.985Z" fill="#E6E2CD" stroke="#557C66" stroke-linecap="round" stroke-linejoin="round"/>
<path d="M116.688 480.869V485.445L103.784 482.962C103.784 487.333 103.898 491.6 104.081 493.258C104.401 496.164 111.185 493.899 117.981 494.551C124.776 495.203 139.637 494.871 141.261 492.927C142.886 490.982 143.194 492.286 133.825 487.756C128.387 485.191 123.372 481.811 118.953 477.734C118.953 477.734 116.688 477.952 116.688 480.869Z" fill="#557C66" stroke="#557C66" stroke-linecap="round" stroke-linejoin="round"/>
<path d="M77.5174 392.93C77.5174 392.93 78.4555 413.19 75.2294 421.381C59.0647 462.759 58.4241 478.284 58.4241 478.284C58.4241 478.284 74.6117 490.559 78.1695 491.92C81.7274 493.281 83.6607 493.853 81.3956 495.466C79.1305 497.079 58.7673 496.759 55.2094 496.759C51.6516 496.759 42.9229 494.174 41.9619 492.561C41.001 490.948 44.2499 478.009 44.2499 478.009C44.2499 478.009 45.8744 445.68 45.8744 438.244C45.8744 430.808 53.951 416.267 53.951 413.67C53.951 411.074 52.338 391.694 52.338 391.694C52.338 391.694 71.7059 396.488 77.5174 392.93Z" fill="#E6E2CD" stroke="#557C66" stroke-linecap="round" stroke-linejoin="round"/>
<path d="M81.3956 495.409C83.6836 493.796 81.7274 493.121 78.1695 491.863C74.6117 490.604 58.447 478.284 58.447 478.284C58.447 478.284 56.8339 478.924 56.8339 481.51C56.9067 482.871 56.5679 484.222 55.8615 485.388C55.8615 485.388 50.6906 484.427 44.5474 483.1C44.0326 482.997 43.5635 482.894 43.1059 482.779C42.2708 486.635 41.3899 491.531 41.9619 492.481C42.9229 494.094 51.6516 496.679 55.2094 496.679C58.7673 496.679 79.1419 497.034 81.3956 495.409Z" fill="#557C66" stroke="#557C66" stroke-linecap="round" stroke-linejoin="round"/>
<path d="M104.356 295.61L116.31 313.067L165.777 305.963V315.332C165.777 315.332 116.688 328.911 114.697 327.298C112.707 325.685 96.2676 317.918 96.2676 317.918L104.356 295.61Z" fill="#E6E2CD" stroke="#557C66" stroke-linecap="round" stroke-linejoin="round"/>
<path d="M60.06 272.661C60.06 272.661 56.5022 293.356 56.5022 301.753V331.497C56.5022 331.497 46.2062 347.993 44.5474 362.534C42.8886 377.074 42.6026 393.25 42.6026 393.25C42.6026 393.25 58.1266 400.045 70.7335 399.073C78.235 398.501 85.6884 397.415 93.0415 395.824L110.819 391.625L97.5603 331.497C97.5603 331.497 104.035 314.337 104.996 313.399C105.957 312.461 109.572 300.815 108.234 292.052C106.895 283.289 102.091 265.225 92.0691 260.374C82.0477 255.524 64.5902 261.347 60.06 272.661Z" fill="#557C66" stroke="#557C66" stroke-linecap="round" stroke-linejoin="round"/>
<path d="M74.7947 331.76C74.0938 337.033 71.8761 341.989 68.4112 346.026C62.6912 352.627 57.9779 353.896 57.9779 353.896C57.9779 353.896 55.2095 380.769 56.2734 391.248" stroke="#E6E2CD" stroke-linecap="round" stroke-linejoin="round"/>
<path d="M77.792 332.652C77.2178 337.609 75.6206 342.393 73.1016 346.701C69.0518 353.302 60.5176 355.647 60.5176 355.647" stroke="#557C66" stroke-linecap="round" stroke-linejoin="round"/>
<path d="M97.8921 270.396C96.199 264.619 91.2912 260.809 88.8888 259.242C81.4185 257.4 71.5801 260.008 65.2652 265.557C65.1508 266.243 65.0707 266.861 64.9106 267.49C64.5902 268.783 59.7397 296.902 59.7397 296.902C59.7397 296.902 60.8837 297.131 62.6683 297.451C60.8837 306.546 62.8857 321.716 62.8857 321.716C62.8857 321.716 72.4381 324.793 79.8283 324.484C87.2186 324.175 95.8443 319.908 95.8443 319.908C95.8443 317.311 98.0065 304.281 99.0246 298.287H99.5051C99.5051 298.287 100.146 278.152 97.8921 270.396Z" fill="#E6E2CD" stroke="#557C66" stroke-linecap="round" stroke-linejoin="round"/>
<path d="M84.4501 295.232C84.4501 295.232 73.0101 306.672 67.1986 308.468Z" fill="#E6E2CD"/>
<path d="M84.4501 295.232C84.4501 295.232 73.0101 306.672 67.1986 308.468" stroke="#557C66" stroke-linecap="round" stroke-linejoin="round"/>
<path d="M84.4501 301.078C84.4501 301.078 77.9751 306.935 72.747 311.248Z" fill="#E6E2CD"/>
<path d="M84.4501 301.078C84.4501 301.078 77.9751 306.935 72.747 311.248" stroke="#557C66" stroke-linecap="round" stroke-linejoin="round"/>
<path d="M109.366 385.036C103.645 388.089 97.2611 389.688 90.7764 389.692C90.7764 389.692 81.0753 393.902 65.883 393.25C57.778 392.81 49.8863 390.492 42.8314 386.477C42.6598 390.596 42.6026 393.25 42.6026 393.25C42.6026 393.25 58.1266 400.045 70.7335 399.073C78.235 398.501 85.6884 397.415 93.0415 395.824L110.819 391.625L109.366 385.036Z" fill="#E6E2CD" stroke="#557C66" stroke-linecap="round" stroke-linejoin="round"/>
<path d="M91.0967 396.487L91.7488 361.241" stroke="#E6E2CD" stroke-linecap="round" stroke-linejoin="round"/>
<path d="M123.106 227.725V236.122C123.106 236.122 127.304 239.359 124.719 241.624C123.68 242.672 122.478 243.545 121.161 244.21C121.161 244.21 119.548 251.646 115.99 255.204C112.432 258.761 110.499 258.109 105.328 254.551C100.157 250.994 96.9197 248.74 96.9197 248.74C96.9197 248.74 100.146 232.895 102.411 227.725C104.676 222.554 111.792 221.902 115.35 222.542C118.907 223.183 123.106 227.725 123.106 227.725Z" fill="#E6E2CD" stroke="#557C66" stroke-linecap="round" stroke-linejoin="round"/>
<path d="M119.571 235.492C119.571 236.465 119.136 237.254 118.61 237.254C118.084 237.254 117.649 236.465 117.649 235.492C117.649 234.52 118.072 233.719 118.61 233.719C119.148 233.719 119.571 234.52 119.571 235.492Z" fill="#557C66"/>
<path d="M116.516 231.317C116.516 231.317 118.29 228.434 120.692 230.836" stroke="#557C66" stroke-linecap="round" stroke-linejoin="round"/>
<path d="M114.114 244.816C115.177 245.897 116.614 246.528 118.129 246.578" stroke="#557C66" stroke-linecap="round" stroke-linejoin="round"/>
<path d="M108.68 225.002C108.68 225.002 101.885 241.292 102.228 249.106C102.571 256.92 111.38 279.33 107.662 286.801C103.944 294.271 96.096 299.728 90.376 290.873C84.656 282.019 82.5625 279.33 78.8331 284.753C75.1036 290.176 70.6878 300.037 62.1993 300.037C53.7108 300.037 43.472 288.837 48.5628 276.951C53.6536 265.065 65.208 259.974 72.3351 248.431C77.568 240.229 81.2517 231.136 83.2031 221.604L109.344 222.622L108.68 225.002Z" fill="#557C66" stroke="#557C66" stroke-linecap="round" stroke-linejoin="round"/>
<path d="M82.5167 226.695H123.266C123.266 226.695 123.266 209.375 119.834 206.664C116.402 203.952 89.621 204.627 86.5665 206.664C83.512 208.7 81.224 224.659 82.5167 226.695Z" fill="#557C66" stroke="#557C66" stroke-linecap="round" stroke-linejoin="round"/>
<path d="M110.247 226.512C110.247 226.512 119.754 230.241 128.242 230.241C136.731 230.241 141.147 226.512 141.147 226.512H110.247Z" fill="#557C66" stroke="#557C66" stroke-linecap="round" stroke-linejoin="round"/>
<path d="M177.091 304.304C177.091 304.304 180.649 303.663 180.649 306.249C180.649 308.834 176.451 308.537 172.893 307.221C169.335 305.906 174.185 304.99 177.091 304.304Z" fill="#E6E2CD" stroke="#557C66" stroke-linecap="round" stroke-linejoin="round"/>
<path d="M177.743 307.576C177.743 307.576 181.301 306.924 181.301 309.521C181.301 312.118 177.091 311.809 173.545 310.482C169.998 309.155 174.837 308.228 177.743 307.576Z" fill="#E6E2CD" stroke="#557C66" stroke-linecap="round" stroke-linejoin="round"/>
<path d="M178.395 310.813C178.395 310.813 181.942 310.161 181.942 312.747C181.942 315.332 177.743 315.035 174.185 313.719C170.628 312.404 175.478 311.454 178.395 310.813Z" fill="#E6E2CD" stroke="#557C66" stroke-linecap="round" stroke-linejoin="round"/>
<path d="M177.755 314.12C177.755 314.12 181.313 313.467 181.313 316.053C181.313 318.638 177.103 318.341 173.556 317.025C170.01 315.71 174.849 314.76 177.755 314.12Z" fill="#E6E2CD" stroke="#557C66" stroke-linecap="round" stroke-linejoin="round"/>
<path d="M162.219 307.576C162.219 307.576 142.176 351.54 142.176 354.48C142.176 357.42 142.176 365.142 144.121 369.672C146.066 374.202 157.7 382.599 162.871 383.572C168.042 384.544 190.03 379.373 192.615 378.721C195.201 378.069 201.996 359.971 201.664 356.413C201.333 352.855 192.936 339.253 191.643 337.022C190.35 334.792 179.688 320.206 178.395 317.574C177.103 314.943 173.213 308.205 173.213 308.205L162.219 307.576Z" fill="#E6E2CD" stroke="#557C66" stroke-linecap="round" stroke-linejoin="round"/>
<path d="M165.777 315.332L163.192 334.414" stroke="#557C66" stroke-linecap="round" stroke-linejoin="round"/>
<path d="M170.307 313.067V338.292" stroke="#557C66" stroke-linecap="round" stroke-linejoin="round"/>
<path d="M173.545 310.482L182.594 338.933" stroke="#557C66" stroke-linecap="round" stroke-linejoin="round"/>
<path d="M109.824 310.161C109.824 310.161 93.9911 270.121 89.7812 268.131C85.5712 266.14 72.9987 266.552 74.2914 281.424C75.5841 296.296 100.478 327.333 103.704 327.653C106.93 327.973 157.7 311.168 157.7 311.168C157.7 311.168 174.86 313.456 176.13 311.488C177.4 309.521 177.743 302.439 177.743 302.439C177.743 302.439 180.031 297.589 177.743 295.976C175.455 294.363 165.159 295.324 163.523 295.324C161.887 295.324 154.143 303.08 154.143 303.08L109.824 310.161Z" fill="#E6E2CD" stroke="#557C66" stroke-linecap="round" stroke-linejoin="round"/>
<path d="M176.176 311.454C177.469 309.521 177.789 302.405 177.789 302.405C177.789 302.405 180.077 297.554 177.789 295.941C175.501 294.328 165.205 295.289 163.569 295.289C161.933 295.289 154.188 303.046 154.188 303.046L145.78 304.396L147.21 314.589C153.422 312.564 157.746 311.157 157.746 311.157C157.746 311.157 174.838 313.456 176.176 311.454Z" fill="#557C66" stroke="#557C66" stroke-linecap="round" stroke-linejoin="round"/>
<path d="M181.942 291.411L200.372 301.112L196.814 307.576L181.942 291.411Z" fill="#E6E2CD" stroke="#557C66" stroke-linecap="round" stroke-linejoin="round"/>
<path d="M166.749 294.649L169.335 287.853C169.335 287.853 171.28 286.881 178.395 288.826C185.511 290.77 199.399 310.482 199.399 310.482C199.399 310.482 189.378 317.597 187.765 317.918C186.152 318.238 180.329 300.758 179.688 299.167C179.175 298.016 178.522 296.932 177.743 295.941L166.749 294.649Z" fill="#E6E2CD" stroke="#557C66" stroke-linecap="round" stroke-linejoin="round"/>
<path d="M177.743 295.941L172.023 292.223" stroke="#557C66" stroke-linecap="round" stroke-linejoin="round"/>
<path d="M215.884 367.361H134.34V495.146H215.884V367.361Z" fill="#557C66" stroke="#557C66" stroke-linecap="round" stroke-linejoin="round"/>
<path d="M215.69 410.696H134.534C133.958 410.696 133.405 410.467 132.997 410.059C132.59 409.652 132.361 409.099 132.361 408.522C132.361 407.946 132.59 407.393 132.997 406.985C133.405 406.578 133.958 406.349 134.534 406.349H215.69C216.266 406.349 216.819 406.578 217.227 406.985C217.634 407.393 217.863 407.946 217.863 408.522C217.863 409.099 217.634 409.652 217.227 410.059C216.819 410.467 216.266 410.696 215.69 410.696Z" fill="#E6E2CD" stroke="#557C66" stroke-linecap="round" stroke-linejoin="round"/>
<path d="M215.69 369.283H134.534C133.958 369.283 133.405 369.054 132.997 368.647C132.59 368.239 132.361 367.686 132.361 367.11C132.361 366.533 132.59 365.98 132.997 365.573C133.405 365.165 133.958 364.936 134.534 364.936H215.69C216.266 364.936 216.819 365.165 217.227 365.573C217.634 365.98 217.863 366.533 217.863 367.11C217.863 367.686 217.634 368.239 217.227 368.647C216.819 369.054 216.266 369.283 215.69 369.283Z" fill="#557C66" stroke="#557C66" stroke-linecap="round" stroke-linejoin="round"/>
<path d="M215.69 453.985H134.534C133.958 453.985 133.405 453.756 132.997 453.348C132.59 452.941 132.361 452.388 132.361 451.811C132.361 451.235 132.59 450.682 132.997 450.274C133.405 449.867 133.958 449.638 134.534 449.638H215.69C216.266 449.638 216.819 449.867 217.227 450.274C217.634 450.682 217.863 451.235 217.863 451.811C217.863 452.388 217.634 452.941 217.227 453.348C216.819 453.756 216.266 453.985 215.69 453.985Z" fill="#E6E2CD" stroke="#557C66" stroke-linecap="round" stroke-linejoin="round"/>
</svg>
