<svg width="821" height="196" viewBox="0 0 821 196" fill="none" xmlns="http://www.w3.org/2000/svg">
<path d="M70.8125 36.0187C69.2768 36.3632 67.7827 36.8724 66.3562 37.5375C41.4562 49.175 25.5 81.7187 25.5 109.6C25.5 136.1 45.3938 157.875 70.8125 160.281V36.0187ZM80.1875 160.281C105.606 157.875 125.5 136.106 125.5 109.606C125.5 107.065 125.369 104.494 125.106 101.894L80.1875 146.819V160.281ZM114.625 67.875C112.227 63.3791 109.424 59.1114 106.25 55.125L80.1875 81.1875V102.312L114.625 67.875ZM99.925 48.1875C95.4439 43.8306 90.2825 40.2334 84.6438 37.5375C83.2173 36.8724 81.7232 36.3632 80.1875 36.0187V67.9312L99.925 48.1875ZM118.85 76.9L80.1875 115.569V133.556L122.375 91.3687L123.2 90.5437C122.1 85.8916 120.646 81.3303 118.85 76.9Z" fill="#557C66"/>
<path d="M246.3 154.5H175.05V49.8H246.3V70.05H197.85V91.5H239.4V111.6H197.85V134.25H246.3V154.5ZM286.298 156.3C262.598 156.3 249.548 140.25 249.548 115.05C249.548 89.85 262.598 73.95 286.298 73.95C302.198 73.95 313.148 81.6 317.798 94.5L299.798 102.3C298.448 96.3 294.098 91.5 286.298 91.5C277.298 91.5 272.648 97.95 272.648 107.85V122.55C272.648 132.45 277.298 138.75 286.298 138.75C295.148 138.75 298.748 133.35 300.998 127.05L318.248 134.55C312.998 149.55 301.748 156.3 286.298 156.3ZM354.206 156.3C331.106 156.3 317.306 140.4 317.306 115.05C317.306 89.7 331.106 73.95 354.206 73.95C377.306 73.95 391.106 89.7 391.106 115.05C391.106 140.4 377.306 156.3 354.206 156.3ZM354.206 138.75C362.906 138.75 368.006 133.05 368.006 123.15V107.1C368.006 97.2 362.906 91.5 354.206 91.5C345.506 91.5 340.406 97.2 340.406 107.1V123.15C340.406 133.05 345.506 138.75 354.206 138.75Z" fill="#A9927B"/>
<path d="M464.35 156.3C436.15 156.3 418 138.3 418 102.9C418 67.5 436.15 48 464.35 48C483.55 48 495.85 55.8 503.5 72.6L483.85 82.8C481.15 74.1 475.6 68.25 464.35 68.25C451 68.25 442.15 77.25 442.15 93.75V110.55C442.15 127.05 451 136.05 464.35 136.05C475.6 136.05 482.05 129 485.2 120.45L503.8 131.25C496 147.15 483.55 156.3 464.35 156.3ZM541.505 156.3C518.405 156.3 504.605 140.4 504.605 115.05C504.605 89.7 518.405 73.95 541.505 73.95C564.605 73.95 578.405 89.7 578.405 115.05C578.405 140.4 564.605 156.3 541.505 156.3ZM541.505 138.75C550.205 138.75 555.305 133.05 555.305 123.15V107.1C555.305 97.2 550.205 91.5 541.505 91.5C532.805 91.5 527.705 97.2 527.705 107.1V123.15C527.705 133.05 532.805 138.75 541.505 138.75ZM617.323 154.5H607.273C592.123 154.5 585.223 146.85 585.223 132.9V43.5H607.423V137.25H617.323V154.5ZM654.483 156.3C630.333 156.3 616.683 140.25 616.683 115.05C616.683 90.15 629.883 73.95 653.583 73.95C679.683 73.95 690.183 92.85 690.183 114.15V120.75H639.633V121.95C639.633 132.3 645.183 138.9 657.033 138.9C666.333 138.9 671.433 134.55 676.383 129.45L687.483 143.25C680.433 151.35 668.883 156.3 654.483 156.3ZM654.033 90.3C645.183 90.3 639.633 96.75 639.633 106.5V107.7H667.233V106.35C667.233 96.75 662.883 90.3 654.033 90.3ZM737.662 154.5H724.462C709.162 154.5 701.062 146.55 701.062 131.55V93H689.962V75.75H695.512C701.512 75.75 703.312 72.75 703.312 67.35V54.45H723.262V75.75H738.862V93H723.262V137.25H737.662V154.5ZM815.784 154.5H803.484C795.534 154.5 789.834 149.1 788.484 140.7H787.584C785.184 150.9 776.484 156.3 764.484 156.3C748.734 156.3 740.034 147 740.034 133.35C740.034 116.7 752.934 108.75 773.784 108.75H786.234V103.8C786.234 96.15 782.484 91.35 773.184 91.35C764.334 91.35 759.684 95.85 756.234 100.65L743.034 88.95C749.334 79.65 758.334 73.95 774.834 73.95C797.034 73.95 808.434 84.15 808.434 102.75V137.25H815.784V154.5ZM772.734 140.85C780.084 140.85 786.234 137.85 786.234 130.65V121.35H775.434C766.884 121.35 762.384 124.5 762.384 130.2V132.45C762.384 138.15 766.134 140.85 772.734 140.85Z" fill="#557C66"/>
</svg>
